<svg width="1920" height="878" viewBox="0 0 1920 878" fill="none" xmlns="http://www.w3.org/2000/svg">
<path d="M195.9 243.4H263.1V283H144.6V72.4H195.9V243.4ZM341.869 113.5V156.1H410.569V195.7H341.869V241.9H419.569V283H290.569V72.4H419.569V113.5H341.869ZM586.973 245.8H508.373L495.773 283H442.073L518.273 72.4H577.673L653.873 283H599.573L586.973 245.8ZM573.773 206.2L547.673 129.1L521.873 206.2H573.773ZM787.465 283L743.665 203.5H731.365V283H680.065V72.4H766.165C782.765 72.4 796.865 75.3 808.465 81.1C820.265 86.9 829.065 94.9 834.865 105.1C840.665 115.1 843.565 126.3 843.565 138.7C843.565 152.7 839.565 165.2 831.565 176.2C823.765 187.2 812.165 195 796.765 199.6L845.365 283H787.465ZM731.365 167.2H763.165C772.565 167.2 779.565 164.9 784.165 160.3C788.965 155.7 791.365 149.2 791.365 140.8C791.365 132.8 788.965 126.5 784.165 121.9C779.565 117.3 772.565 115 763.165 115H731.365V167.2ZM1067.17 283H1015.87L930.068 153.1V283H878.768V72.4H930.068L1015.87 202.9V72.4H1067.17V283ZM1162.55 235.6L1129.25 321.7H1096.55L1113.95 235.6H1162.55ZM195.9 333.4V544H144.6V333.4H195.9ZM424.477 544H373.177L287.377 414.1V544H236.077V333.4H287.377L373.177 463.9V333.4H424.477V544ZM653.063 544H601.763L515.963 414.1V544H464.663V333.4H515.963L601.763 463.9V333.4H653.063V544ZM792.848 546.1C773.048 546.1 754.848 541.5 738.248 532.3C721.848 523.1 708.748 510.3 698.948 493.9C689.348 477.3 684.548 458.7 684.548 438.1C684.548 417.5 689.348 399 698.948 382.6C708.748 366.2 721.848 353.4 738.248 344.2C754.848 335 773.048 330.4 792.848 330.4C812.648 330.4 830.748 335 847.148 344.2C863.748 353.4 876.748 366.2 886.148 382.6C895.748 399 900.548 417.5 900.548 438.1C900.548 458.7 895.748 477.3 886.148 493.9C876.548 510.3 863.548 523.1 847.148 532.3C830.748 541.5 812.648 546.1 792.848 546.1ZM792.848 499.3C809.648 499.3 823.048 493.7 833.048 482.5C843.248 471.3 848.348 456.5 848.348 438.1C848.348 419.5 843.248 404.7 833.048 393.7C823.048 382.5 809.648 376.9 792.848 376.9C775.848 376.9 762.248 382.4 752.048 393.4C742.048 404.4 737.048 419.3 737.048 438.1C737.048 456.7 742.048 471.6 752.048 482.8C762.248 493.8 775.848 499.3 792.848 499.3ZM1129.79 333.4L1055.09 544H990.888L916.188 333.4H970.788L1022.99 492.4L1075.49 333.4H1129.79ZM1285.33 506.8H1206.73L1194.13 544H1140.43L1216.63 333.4H1276.03L1352.23 544H1297.93L1285.33 506.8ZM1272.13 467.2L1246.03 390.1L1220.23 467.2H1272.13ZM1529.92 333.4V374.5H1474.12V544H1422.82V374.5H1367.02V333.4H1529.92ZM1609.97 374.5V417.1H1678.67V456.7H1609.97V502.9H1687.67V544H1558.67V333.4H1687.67V374.5H1609.97ZM1779.17 496.6L1745.87 582.7H1713.17L1730.57 496.6H1779.17ZM223.5 594.4C245.7 594.4 265.1 598.8 281.7 607.6C298.3 616.4 311.1 628.8 320.1 644.8C329.3 660.6 333.9 678.9 333.9 699.7C333.9 720.3 329.3 738.6 320.1 754.6C311.1 770.6 298.2 783 281.4 791.8C264.8 800.6 245.5 805 223.5 805H144.6V594.4H223.5ZM220.2 760.6C239.6 760.6 254.7 755.3 265.5 744.7C276.3 734.1 281.7 719.1 281.7 699.7C281.7 680.3 276.3 665.2 265.5 654.4C254.7 643.6 239.6 638.2 220.2 638.2H195.9V760.6H220.2ZM416.869 635.5V678.1H485.569V717.7H416.869V763.9H494.569V805H365.569V594.4H494.569V635.5H416.869ZM728.573 594.4L653.873 805H589.673L514.973 594.4H569.573L621.773 753.4L674.273 594.4H728.573ZM804.314 635.5V678.1H873.014V717.7H804.314V763.9H882.014V805H753.014V594.4H882.014V635.5H804.314ZM969.619 765.4H1036.82V805H918.319V594.4H969.619V765.4ZM1163.89 807.1C1144.09 807.1 1125.89 802.5 1109.29 793.3C1092.89 784.1 1079.79 771.3 1069.99 754.9C1060.39 738.3 1055.59 719.7 1055.59 699.1C1055.59 678.5 1060.39 660 1069.99 643.6C1079.79 627.2 1092.89 614.4 1109.29 605.2C1125.89 596 1144.09 591.4 1163.89 591.4C1183.69 591.4 1201.79 596 1218.19 605.2C1234.79 614.4 1247.79 627.2 1257.19 643.6C1266.79 660 1271.59 678.5 1271.59 699.1C1271.59 719.7 1266.79 738.3 1257.19 754.9C1247.59 771.3 1234.59 784.1 1218.19 793.3C1201.79 802.5 1183.69 807.1 1163.89 807.1ZM1163.89 760.3C1180.69 760.3 1194.09 754.7 1204.09 743.5C1214.29 732.3 1219.39 717.5 1219.39 699.1C1219.39 680.5 1214.29 665.7 1204.09 654.7C1194.09 643.5 1180.69 637.9 1163.89 637.9C1146.89 637.9 1133.29 643.4 1123.09 654.4C1113.09 665.4 1108.09 680.3 1108.09 699.1C1108.09 717.7 1113.09 732.6 1123.09 743.8C1133.29 754.8 1146.89 760.3 1163.89 760.3ZM1463.63 662.2C1463.63 674.4 1460.83 685.6 1455.23 695.8C1449.63 705.8 1441.03 713.9 1429.43 720.1C1417.83 726.3 1403.43 729.4 1386.23 729.4H1354.43V805H1303.13V594.4H1386.23C1403.03 594.4 1417.23 597.3 1428.83 603.1C1440.43 608.9 1449.13 616.9 1454.93 627.1C1460.73 637.3 1463.63 649 1463.63 662.2ZM1382.33 688.6C1392.13 688.6 1399.43 686.3 1404.23 681.7C1409.03 677.1 1411.43 670.6 1411.43 662.2C1411.43 653.8 1409.03 647.3 1404.23 642.7C1399.43 638.1 1392.13 635.8 1382.33 635.8H1354.43V688.6H1382.33Z" fill="black" fill-opacity="0.03"/>
</svg>
