<svg width="48" height="48" viewBox="0 0 48 48" fill="none" xmlns="http://www.w3.org/2000/svg">
<circle cx="24" cy="24" r="23" fill="white" stroke="#E76F00" stroke-width="2"/>
<path d="M16.5 26.4999H14C13.3096 26.4999 12.75 27.0596 12.75 27.7499V30.2499C12.75 30.9403 13.3096 31.4999 14 31.4999H16.5C17.1904 31.4999 17.75 30.9403 17.75 30.2499V27.7499C17.75 27.0596 17.1904 26.4999 16.5 26.4999Z" stroke="#181818" stroke-width="2" stroke-linecap="round" stroke-linejoin="round"/>
<path d="M33.9995 26.4999H31.4995C30.8092 26.4999 30.2495 27.0596 30.2495 27.7499V30.2499C30.2495 30.9403 30.8092 31.4999 31.4995 31.4999H33.9995C34.6899 31.4999 35.2495 30.9403 35.2495 30.2499V27.7499C35.2495 27.0596 34.6899 26.4999 33.9995 26.4999Z" stroke="#181818" stroke-width="2" stroke-linecap="round" stroke-linejoin="round"/>
<path d="M25.2505 16.5H22.7505C22.0601 16.5 21.5005 17.0596 21.5005 17.75V20.25C21.5005 20.9404 22.0601 21.5 22.7505 21.5H25.2505C25.9408 21.5 26.5005 20.9404 26.5005 20.25V17.75C26.5005 17.0596 25.9408 16.5 25.2505 16.5Z" stroke="#181818" stroke-width="2" stroke-linecap="round" stroke-linejoin="round"/>
<path d="M21.4995 19.6251C19.8367 19.9019 18.3156 20.7309 17.1817 21.9782C16.0478 23.2255 15.3671 24.8185 15.2495 26.5001" stroke="#181818" stroke-width="2" stroke-linecap="round" stroke-linejoin="round"/>
<path d="M26.4995 19.6251C28.1623 19.9019 29.6834 20.7309 30.8173 21.9782C31.9513 23.2255 32.6319 24.8185 32.7495 26.5001" stroke="#181818" stroke-width="2" stroke-linecap="round" stroke-linejoin="round"/>
<path d="M21.5005 18.9999H14.0005" stroke="#181818" stroke-width="2" stroke-linecap="round" stroke-linejoin="round"/>
<path d="M33.9995 18.9999H26.4995" stroke="#181818" stroke-width="2" stroke-linecap="round" stroke-linejoin="round"/>
<path d="M12.7495 20.2501C13.4399 20.2501 13.9995 19.6904 13.9995 19.0001C13.9995 18.3097 13.4399 17.7501 12.7495 17.7501C12.0592 17.7501 11.4995 18.3097 11.4995 19.0001C11.4995 19.6904 12.0592 20.2501 12.7495 20.2501Z" stroke="#181818" stroke-width="2" stroke-linecap="round" stroke-linejoin="round"/>
<path d="M35.2495 20.2501C35.9399 20.2501 36.4995 19.6904 36.4995 19.0001C36.4995 18.3097 35.9399 17.7501 35.2495 17.7501C34.5592 17.7501 33.9995 18.3097 33.9995 19.0001C33.9995 19.6904 34.5592 20.2501 35.2495 20.2501Z" stroke="#181818" stroke-width="2" stroke-linecap="round" stroke-linejoin="round"/>
</svg>
