<svg width="39" height="39" viewBox="0 0 39 39" fill="none" xmlns="http://www.w3.org/2000/svg">
<path d="M19.5 35.5875L30.5839 32.5145L33.1917 3.30164H19.5V35.5875Z" fill="#F16529"/>
<path d="M19.4999 15.9824H13.951L13.5677 11.6881H19.4999V7.495H8.98486L9.08541 8.6199L10.1159 20.1758H19.4999V15.9824ZM19.4999 26.8728L19.4813 26.878L14.8114 25.6166L14.5131 22.2726H10.3032L10.8907 28.8566L19.4807 31.2411L19.4999 31.2359V26.8728Z" fill="#EBEBEB"/>
<path d="M19.4854 15.9824V20.1758H24.6489L24.1623 25.6141L19.4854 26.8765V31.2393L28.0821 28.8566L28.1452 28.1482L29.1305 17.1085L29.2326 15.9824H28.1028H19.4854ZM19.4854 7.495V11.6881H29.6144L29.6985 10.746L29.8898 8.6199L29.9901 7.495H19.4854Z" fill="white"/>
<path d="M5.73227 34.7719L2.66895 0.411987H36.3308L33.2644 34.7667L19.4795 38.5884L5.73227 34.7719V34.7719Z" fill="#1572B6"/>
<path d="M19.5005 35.6674L30.6396 32.5791L33.2602 3.22119H19.5005V35.6674Z" fill="#33A9DC"/>
<path d="M19.5005 15.6698H25.0769L25.462 11.3545H19.5005V7.14038H30.0677L29.9665 8.27108L28.9306 19.8839H19.5005V15.6698V15.6698Z" fill="white"/>
<path d="M19.5252 26.6142L19.5066 26.6197L14.8135 25.3525L14.5134 21.9915H10.2837L10.8739 28.6083L19.506 31.0041L19.5252 30.9986V26.6142V26.6142Z" fill="#EBEBEB"/>
<path d="M24.7185 19.7057L24.2109 25.3491L19.5107 26.6178V31.0023L28.1499 28.608L28.2132 27.896L28.9463 19.7057H24.7185Z" fill="white"/>
<path d="M19.5147 7.14038V11.3545H9.3357L9.2513 10.4075L9.05935 8.27108L8.9585 7.14038H19.5147V7.14038ZM19.5004 15.6704V19.8845H14.8664L14.782 18.9376L14.5897 16.8011L14.4892 15.6704H19.5004V15.6704Z" fill="#EBEBEB"/>
</svg>
