<svg width="39" height="39" viewBox="0 0 39 39" fill="none" xmlns="http://www.w3.org/2000/svg">
<path d="M38.0059 17.787L21.2127 0.994474C20.2463 0.0273955 18.6777 0.0273955 17.7097 0.994474L14.2229 4.48193L18.6463 8.90538C19.6747 8.55834 20.8532 8.79112 21.6725 9.61043C22.4961 10.4349 22.727 11.6235 22.3715 12.6552L26.6346 16.9187C27.666 16.5631 28.8564 16.7928 29.6797 17.6179C30.8314 18.7687 30.8314 20.6343 29.6797 21.7857C28.528 22.9375 26.663 22.9375 25.5106 21.7857C24.6447 20.9192 24.4305 19.6471 24.8693 18.5801L20.8937 14.6046L20.8931 25.0678C21.174 25.2065 21.4388 25.3917 21.6728 25.6248C22.8239 26.7756 22.8239 28.6406 21.6728 29.7938C20.5214 30.9446 18.6552 30.9446 17.505 29.7938C16.3539 28.6409 16.3539 26.7759 17.505 25.6248C17.7896 25.3405 18.1186 25.1257 18.4699 24.9819V14.4217C18.1186 14.2779 17.7902 14.0647 17.505 13.7786C16.633 12.9071 16.423 11.6275 16.8703 10.5562L12.5093 6.19518L0.99458 17.7093C0.0271973 18.6773 0.0271973 20.2458 0.99458 21.2132L17.788 38.0058C18.7551 38.9729 20.323 38.9729 21.2916 38.0058L38.0062 21.2912C38.9733 20.3235 38.9733 18.7541 38.0059 17.787V17.787Z" fill="#F34F29"/>
</svg>
