<svg width="39" height="39" viewBox="0 0 39 39" fill="none" xmlns="http://www.w3.org/2000/svg">
<path fill-rule="evenodd" clip-rule="evenodd" d="M19.5001 1.55481C9.33964 1.55481 1.10059 9.79203 1.10059 19.9543C1.10059 28.0839 6.37259 34.9805 13.6833 37.4138C14.6025 37.5844 14.9401 37.0146 14.9401 36.5287C14.9401 36.0899 14.923 34.6405 14.9151 33.1031C9.79637 34.2161 8.71625 30.9322 8.71625 30.9322C7.87927 28.8054 6.67332 28.2399 6.67332 28.2399C5.00363 27.098 6.79916 27.1217 6.79916 27.1217C8.64648 27.2512 9.61965 29.0178 9.61965 29.0178C11.2607 31.8301 13.924 31.0172 14.9739 30.5473C15.1391 29.3581 15.6159 28.5462 16.1421 28.0867C12.0553 27.622 7.75892 26.0441 7.75892 18.9939C7.75892 16.9851 8.47798 15.3437 9.65499 14.0549C9.46365 13.5918 8.83386 11.7204 9.83293 9.18601C9.83293 9.18601 11.3777 8.6915 14.8938 11.072C16.3618 10.664 17.9361 10.459 19.5001 10.452C21.0631 10.459 22.6383 10.6634 24.1091 11.0714C27.6209 8.69089 29.1638 9.1854 29.1638 9.1854C30.1653 11.7195 29.5355 13.5912 29.3445 14.0543C30.5243 15.3431 31.2381 16.9845 31.2381 18.9933C31.2381 26.0602 26.9338 27.6159 22.8367 28.0718C23.4969 28.6427 24.085 29.7628 24.085 31.4791C24.085 33.941 24.0637 35.9223 24.0637 36.5284C24.0637 37.018 24.3952 37.5917 25.3275 37.411C32.6339 34.9754 37.8998 28.0809 37.8998 19.9543C37.8995 9.79264 29.6614 1.55511 19.5001 1.55511V1.55481Z" fill="#181818"/>
<path d="M8.06926 27.9721C8.02874 28.0635 7.88493 28.0909 7.75391 28.0285C7.61985 27.9688 7.5452 27.8441 7.58847 27.7524C7.62808 27.658 7.77219 27.6321 7.90534 27.6951C8.0394 27.7552 8.11558 27.881 8.06896 27.9724L8.06926 27.9721ZM8.81453 28.8036C8.72708 28.885 8.55554 28.8472 8.43915 28.7183C8.3185 28.5903 8.29595 28.4188 8.38522 28.3362C8.47602 28.2552 8.64238 28.2936 8.76304 28.4215C8.88308 28.5513 8.90685 28.7213 8.81483 28.8039L8.81453 28.8036ZM9.54029 29.863C9.42756 29.9416 9.24292 29.8682 9.12897 29.7046C9.01623 29.5406 9.01623 29.3441 9.13201 29.2658C9.24566 29.1872 9.42756 29.2582 9.54334 29.4203C9.65547 29.5863 9.65547 29.7829 9.54029 29.8627V29.863ZM10.5339 30.8871C10.4333 30.9983 10.2182 30.9684 10.061 30.817C9.90044 30.6686 9.85565 30.4574 9.9565 30.3465C10.0589 30.235 10.2749 30.2661 10.433 30.4166C10.5936 30.5647 10.642 30.7761 10.5345 30.8868L10.5339 30.8871ZM11.905 31.4815C11.8602 31.6256 11.6536 31.6911 11.4449 31.6296C11.2368 31.5665 11.1006 31.398 11.1433 31.2524C11.1859 31.107 11.394 31.0391 11.6039 31.1046C11.812 31.1674 11.9482 31.3349 11.905 31.4815ZM13.411 31.5915C13.4162 31.7432 13.2395 31.8688 13.021 31.8718C12.8008 31.877 12.6225 31.7539 12.6204 31.6046C12.6204 31.4513 12.7934 31.3273 13.0134 31.3231C13.2319 31.3191 13.4113 31.441 13.4113 31.5912L13.411 31.5915ZM14.812 31.3532C14.8382 31.501 14.6862 31.653 14.4689 31.6936C14.2556 31.7332 14.0576 31.6412 14.0302 31.4946C14.004 31.3429 14.1587 31.1908 14.372 31.1515C14.5896 31.114 14.7846 31.2033 14.812 31.3535V31.3532Z" fill="#181818"/>
</svg>
