<svg width="39" height="39" viewBox="0 0 39 39" fill="none" xmlns="http://www.w3.org/2000/svg">
<path d="M5.80035 34.6966L2.75195 0.506104H36.2481L33.1963 34.6914L19.4796 38.4939L5.80035 34.6966Z" fill="#E44D26"/>
<path d="M19.5 35.5875L30.5839 32.5145L33.1917 3.30164H19.5V35.5875Z" fill="#F16529"/>
<path d="M19.4999 15.9824H13.951L13.5677 11.6881H19.4999V7.495H8.98486L9.08541 8.6199L10.1159 20.1758H19.4999V15.9824ZM19.4999 26.8728L19.4813 26.878L14.8114 25.6166L14.5131 22.2726H10.3032L10.8907 28.8566L19.4807 31.2411L19.4999 31.2359V26.8728Z" fill="#EBEBEB"/>
<path d="M19.4854 15.9824V20.1758H24.6489L24.1623 25.6141L19.4854 26.8765V31.2393L28.0821 28.8566L28.1452 28.1482L29.1305 17.1085L29.2326 15.9824H28.1028H19.4854ZM19.4854 7.495V11.6881H29.6144L29.6985 10.746L29.8898 8.6199L29.9901 7.495H19.4854Z" fill="white"/>
</svg>
