<svg width="39" height="39" viewBox="0 0 39 39" fill="none" xmlns="http://www.w3.org/2000/svg">
<path d="M0.429199 0.428955H38.5712V38.5713H0.429199V0.428955Z" fill="#F0DB4F"/>
<path d="M35.4493 29.4742C35.1699 27.7342 34.0352 26.2726 30.6742 24.9097C29.5066 24.3732 28.205 23.9889 27.8171 23.1041C27.6794 22.5892 27.6611 22.2991 27.7483 21.9875C27.9984 20.9759 29.2059 20.6605 30.1629 20.9506C30.7793 21.1572 31.3628 21.6322 31.7147 22.3899C33.3606 21.3241 33.3573 21.3312 34.5066 20.5987C34.0858 19.9464 33.8612 19.6453 33.5858 19.3662C32.5959 18.2605 31.247 17.6911 29.0898 17.7346L27.9661 17.88C26.8894 18.152 25.8632 18.7172 25.2614 19.475C23.4559 21.5237 23.9708 25.1093 26.1679 26.5849C28.3324 28.2095 31.5121 28.5791 31.9182 30.0982C32.3134 31.958 30.5514 32.5601 28.8001 32.3462C27.5094 32.0778 26.7916 31.4218 26.0155 30.2289C24.5872 31.0556 24.5872 31.0556 23.1186 31.9002C23.4668 32.6616 23.8327 33.0062 24.4165 33.6658C27.1794 36.4683 34.0934 36.3306 35.3335 32.0888C35.3838 31.9431 35.7177 30.9718 35.4493 29.4742V29.4742ZM21.164 17.9592H17.5964L17.5818 27.1827C17.5818 29.1443 17.6832 30.9425 17.3642 31.4937C16.8423 32.5778 15.4898 32.4434 14.8734 32.2332C14.2461 31.9248 13.9271 31.4864 13.5575 30.8667C13.456 30.6887 13.3798 30.551 13.3542 30.5403L10.4536 32.3167C10.9359 33.3066 11.6465 34.1658 12.5566 34.724C13.9161 35.54 15.7433 35.7901 17.6543 35.3514C18.898 34.9891 19.9711 34.2386 20.533 33.0964C21.3453 31.5988 21.171 29.7862 21.1637 27.7814C21.182 24.5106 21.164 21.2404 21.164 17.9592Z" fill="#323330"/>
</svg>
