<svg width="39" height="39" viewBox="0 0 39 39" fill="none" xmlns="http://www.w3.org/2000/svg">
<path d="M28.7036 24.5628L29.8302 21.7139H33.0831L31.5391 17.3922L33.4699 12.5099L38.9998 27.1925H34.9217L33.9768 24.5628H28.7036Z" fill="#181818"/>
<path d="M25.2221 26.3826L31.1419 11.7L27.2173 11.7003L23.1677 21.1885L20.2878 11.7003H17.2713L14.1795 21.1885L11.9988 16.8646L10.0254 22.9442L12.0291 26.3826H15.8914L18.6856 17.8737L21.3494 26.3826H25.2221Z" fill="#181818"/>
<path d="M3.72538 21.3516H6.14278C6.87509 21.3516 7.52705 21.2699 8.09896 21.1064L8.72402 19.1806L10.4713 13.7973C10.3384 13.5865 10.1865 13.3867 10.0154 13.1988C9.11832 12.2057 7.80566 11.7095 6.07774 11.7095H0V26.3921H3.72538V21.3516ZM6.92513 15.0871C7.27565 15.4399 7.45076 15.912 7.45076 16.503C7.45076 17.099 7.2966 17.5715 6.9886 17.9207C6.65058 18.3088 6.02865 18.503 5.12247 18.503H3.72538V14.5584H5.13279C5.97736 14.5584 6.57491 14.7344 6.92513 15.0871Z" fill="#181818"/>
</svg>
