<svg width="39" height="39" viewBox="0 0 39 39" fill="none" xmlns="http://www.w3.org/2000/svg">
<path d="M19.5003 22.9735C21.4186 22.9735 22.9737 21.4184 22.9737 19.5001C22.9737 17.5817 21.4186 16.0266 19.5003 16.0266C17.582 16.0266 16.0269 17.5817 16.0269 19.5001C16.0269 21.4184 17.582 22.9735 19.5003 22.9735Z" fill="#61DAFB"/>
<path d="M32.6932 13.7719C32.0229 13.5282 31.3221 13.2844 30.5908 13.0711C30.7736 12.3399 30.926 11.6086 31.0479 10.9079C31.6877 6.88599 30.9869 4.05239 29.0369 2.95552C28.458 2.62036 27.8182 2.46802 27.0869 2.46802C24.9541 2.46802 22.2424 4.05239 19.5002 6.70317C16.758 4.05239 14.0463 2.46802 11.9135 2.46802C11.1822 2.46802 10.5424 2.62036 9.96348 2.95552C8.01348 4.08286 7.3127 6.91645 7.95254 10.9079C8.07442 11.6086 8.22676 12.3399 8.40957 13.0711C7.67832 13.2844 6.97754 13.4977 6.30723 13.7719C2.49863 15.2344 0.426758 17.2454 0.426758 19.5C0.426758 21.7547 2.5291 23.7657 6.30723 25.2282C6.97754 25.4719 7.67832 25.7157 8.40957 25.929C8.22676 26.6602 8.07442 27.3915 7.95254 28.0922C7.3127 32.1141 8.01348 34.9477 9.96348 36.0446C10.5424 36.3797 11.1822 36.5321 11.9135 36.5321C14.0768 36.5321 16.7885 34.9477 19.5002 32.2969C22.2424 34.9477 24.9541 36.5321 27.0869 36.5321C27.8182 36.5321 28.458 36.3797 29.0369 36.0446C30.9869 34.9172 31.6877 32.0836 31.0479 28.0922C30.926 27.3915 30.7736 26.6602 30.5908 25.929C31.3221 25.7157 32.0229 25.5024 32.6932 25.2282C36.5018 23.7657 38.5736 21.7547 38.5736 19.5C38.5736 17.2454 36.5018 15.2344 32.6932 13.7719ZM28.1838 4.47895C29.433 5.2102 29.8596 7.46489 29.3416 10.6641C29.2502 11.304 29.0979 11.9743 28.915 12.675C27.3307 12.3094 25.6549 12.0657 23.8877 11.9133C22.8518 10.4508 21.7854 9.14067 20.7189 7.95239C22.9736 5.72817 25.2588 4.20474 27.1174 4.20474C27.5135 4.20474 27.8791 4.29614 28.1838 4.47895V4.47895ZM24.7713 22.5469C24.2229 23.5219 23.583 24.4969 22.9127 25.4719C21.7854 25.5633 20.658 25.5938 19.5002 25.5938C18.3119 25.5938 17.1846 25.5633 16.0877 25.4719C15.4174 24.4969 14.808 23.5219 14.2596 22.5469C13.6807 21.5415 13.1322 20.5055 12.6447 19.5C13.1322 18.4946 13.6807 17.4586 14.2596 16.4532C14.808 15.4782 15.4479 14.5032 16.1182 13.5282C17.2455 13.4368 18.3729 13.4063 19.5307 13.4063C20.7189 13.4063 21.8463 13.4368 22.9432 13.5282C23.6135 14.5032 24.2229 15.4782 24.7713 16.4532C25.3502 17.4586 25.8986 18.4946 26.3861 19.5C25.8682 20.5055 25.3502 21.511 24.7713 22.5469ZM27.3002 21.5415C27.7572 22.6079 28.1229 23.6438 28.458 24.6797C27.4221 24.9235 26.3252 25.1063 25.1674 25.2586C25.533 24.6797 25.9291 24.0704 26.2643 23.4305C26.6299 22.7907 26.965 22.1508 27.3002 21.5415ZM19.5002 29.7985C18.7689 29.0063 18.0682 28.1532 17.3979 27.2696C18.0986 27.3 18.7994 27.3305 19.5002 27.3305C20.201 27.3305 20.9018 27.3 21.6025 27.2696C20.9322 28.1532 20.2314 29.0063 19.5002 29.7985ZM13.833 25.2282C12.6752 25.0758 11.5783 24.893 10.5424 24.6493C10.8775 23.6438 11.2432 22.5774 11.7002 21.511C12.0354 22.1204 12.3705 22.7602 12.7361 23.3696C13.1018 24.0399 13.4674 24.6188 13.833 25.2282V25.2282ZM11.7002 17.4586C11.2432 16.3922 10.8775 15.3563 10.5424 14.3204C11.5783 14.0766 12.6752 13.8938 13.833 13.7415C13.4674 14.3204 13.0713 14.9297 12.7361 15.5696C12.3705 16.2094 12.0354 16.8493 11.7002 17.4586V17.4586ZM19.5002 9.20161C20.2314 9.9938 20.9322 10.8469 21.6025 11.7305C20.9018 11.7 20.201 11.6696 19.5002 11.6696C18.7994 11.6696 18.0986 11.7 17.3979 11.7305C18.0682 10.8469 18.7689 9.9938 19.5002 9.20161V9.20161ZM26.2643 15.6L25.1674 13.7719C26.3252 13.9243 27.4221 14.1071 28.458 14.3508C28.1229 15.3563 27.7572 16.4227 27.3002 17.4891C26.965 16.8493 26.6299 16.2094 26.2643 15.6V15.6ZM9.65879 10.6641C9.14082 7.46489 9.56738 5.2102 10.8166 4.47895C11.1213 4.29614 11.4869 4.20474 11.883 4.20474C13.7111 4.20474 15.9963 5.6977 18.2814 7.95239C17.215 9.1102 16.1486 10.4508 15.1127 11.9133C13.3455 12.0657 11.6697 12.3399 10.0854 12.675C9.90254 11.9743 9.78067 11.304 9.65879 10.6641ZM2.13301 19.5C2.13301 18.068 3.86973 16.5446 6.9166 15.4172C7.52598 15.1735 8.19629 14.9602 8.8666 14.7774C9.3541 16.3008 9.96348 17.9157 10.6947 19.5305C9.96348 21.1454 9.32363 22.7297 8.8666 24.2532C4.66191 23.0344 2.13301 21.2063 2.13301 19.5V19.5ZM10.8166 34.5211C9.56738 33.7899 9.14082 31.5352 9.65879 28.336C9.7502 27.6961 9.90254 27.0258 10.0854 26.325C11.6697 26.6907 13.3455 26.9344 15.1127 27.0868C16.1486 28.5493 17.215 29.8594 18.2814 31.0477C16.0268 33.2719 13.7416 34.7954 11.883 34.7954C11.4869 34.7954 11.1213 34.704 10.8166 34.5211ZM29.3416 28.336C29.8596 31.5352 29.433 33.7899 28.1838 34.5211C27.8791 34.704 27.5135 34.7954 27.1174 34.7954C25.2893 34.7954 23.0041 33.3024 20.7189 31.0477C21.7854 29.8899 22.8518 28.5493 23.8877 27.0868C25.6549 26.9344 27.3307 26.6602 28.915 26.325C29.0979 27.0258 29.2197 27.6961 29.3416 28.336V28.336ZM32.0838 23.5829C31.4744 23.8266 30.8041 24.0399 30.1338 24.2227C29.6463 22.6993 29.0369 21.0844 28.3057 19.4696C29.0369 17.8547 29.6768 16.2704 30.1338 14.7469C34.3385 15.9657 36.8674 17.7938 36.8674 19.5C36.8674 20.9321 35.1002 22.4555 32.0838 23.5829V23.5829Z" fill="#61DAFB"/>
</svg>
