<svg width="39" height="39" viewBox="0 0 39 39" fill="none" xmlns="http://www.w3.org/2000/svg">
<path d="M35.7368 29.8898L20.1825 38.6953V31.8368L29.8594 26.5078L35.7368 29.8898ZM36.8032 28.927V10.527L31.1116 13.8176V25.6425L36.8001 28.924L36.8032 28.927ZM3.26318 29.8898L18.8022 38.6892V31.8368L9.12232 26.5078L3.26318 29.8898ZM2.19678 28.927V10.527L7.88834 13.8176V25.6425L2.19678 28.927ZM2.86404 9.33562L18.8175 0.304688V6.93469L8.59521 12.5562L8.51295 12.6019L2.86404 9.33562ZM36.1298 9.33562L20.1825 0.304688V6.93469L30.4047 12.5531L30.487 12.5988L36.1359 9.33562H36.1298Z" fill="#8ED6FB"/>
<path d="M18.8176 30.2769L9.25342 25.0149V14.6007L18.8176 20.1095V30.2769ZM20.1826 30.2769L29.7467 25.021V14.6007L20.1826 20.1095V30.2769ZM9.9024 13.4063L19.5001 8.12305L29.0977 13.4063L19.5001 18.9395L9.9024 13.4063Z" fill="#1C78C0"/>
</svg>
